<?xml version="1.0" encoding="UTF-8" standalone="no"?>
<!-- Created with Inkscape (http://www.inkscape.org/) -->

<svg
        xmlns:dc="http://purl.org/dc/elements/1.1/"
        xmlns:cc="http://creativecommons.org/ns#"
        xmlns:rdf="http://www.w3.org/1999/02/22-rdf-syntax-ns#"
        xmlns="http://www.w3.org/2000/svg"
        xmlns:sodipodi="http://sodipodi.sourceforge.net/DTD/sodipodi-0.dtd"
        xmlns:inkscape="http://www.inkscape.org/namespaces/inkscape"
        width="16"
        height="16"
        viewBox="0 0 4.233333 4.2333335"
        version="1.1"
        id="svg832"
        inkscape:version="0.92.5 (2060ec1f9f, 2020-04-08)"
        sodipodi:docname="theme.svg"
        enable-background="new">
    <defs
         id="defs826">
        <inkscape:path-effect
             effect="powerstroke"
             id="path-effect3555"
             is_visible="true"
             offset_points="0,0.13229166"
             sort_points="true"
             interpolator_type="CubicBezierJohan"
             interpolator_beta="0.2"
             start_linecap_type="zerowidth"
             linejoin_type="extrp_arc"
             miter_limit="4"
             end_linecap_type="zerowidth" />
        <inkscape:path-effect
             effect="bspline"
             id="path-effect3553"
             is_visible="true"
             weight="33.333333"
             steps="2"
             helper_size="0"
             apply_no_weight="true"
             apply_with_weight="true"
             only_selected="false" />
        <filter
             inkscape:collect="always"
             style="color-interpolation-filters:sRGB"
             id="filter11582" />
        <filter
             inkscape:collect="always"
             style="color-interpolation-filters:sRGB"
             id="filter11764" />
    </defs>
    <sodipodi:namedview
         id="base"
         pagecolor="#303030"
         bordercolor="#666666"
         borderopacity="1.0"
         inkscape:pageopacity="0"
         inkscape:pageshadow="2"
         inkscape:zoom="22.627417"
         inkscape:cx="1.3220789"
         inkscape:cy="5.8385034"
         inkscape:document-units="px"
         inkscape:current-layer="layer1"
         showgrid="false"
         inkscape:window-width="1600"
         inkscape:window-height="838"
         inkscape:window-x="-8"
         inkscape:window-y="-8"
         inkscape:window-maximized="1"
         units="px"
         showguides="true"
         inkscape:lockguides="true" />
    <metadata
         id="metadata829">
        <rdf:RDF>
            <cc:Work
                 rdf:about="">
                <dc:format>image/svg+xml</dc:format>
                <dc:type
                     rdf:resource="http://purl.org/dc/dcmitype/StillImage" />
                <dc:title></dc:title>
            </cc:Work>
        </rdf:RDF>
    </metadata>
    <g
         inkscape:label="Layer 1"
         inkscape:groupmode="layer"
         id="layer1"
         transform="translate(0,-292.76664)">
        <path
             style="opacity:1;fill:#00ff3c;fill-opacity:1;stroke:none;stroke-width:0.52916664;stroke-linecap:round;stroke-linejoin:round;stroke-miterlimit:4;stroke-dasharray:none;stroke-dashoffset:16;stroke-opacity:1;paint-order:stroke fill markers"
             d="m 2.8174664,292.88914 c -0.3935776,4.8e-4 -0.7641957,0.18534 -1.0013414,0.49945 0.2530673,0.10605 0.4644664,0.29202 0.6019093,0.52951 0.083174,0.14445 0.1367763,0.30401 0.1576867,0.46938 0.041245,0.005 0.0822,0.0127 0.1227134,0.0221 h 0.00123 c 0.040414,0.009 0.080345,0.0205 0.1196458,0.0337 0.039808,0.0134 0.078921,0.0287 0.117191,0.046 h 6.283e-4 c 0.037941,0.0172 0.075005,0.0362 0.1110555,0.0571 0.024877,0.0149 0.049229,0.0307 0.073015,0.0472 0.020674,0.0139 0.040932,0.0284 0.060743,0.0436 0.012877,0.01 0.025562,0.0202 0.038041,0.0307 0.019731,0.0162 0.038965,0.033 0.057675,0.0503 0.012943,0.0122 0.025628,0.0247 0.038041,0.0374 0.015792,0.0163 0.031135,0.0331 0.046017,0.0503 0.013251,0.015 0.026137,0.0304 0.038655,0.046 0.012883,0.0163 0.025364,0.0328 0.037428,0.0497 0.012503,0.0171 0.024576,0.0345 0.0362,0.0522 0.011514,0.0181 0.022562,0.0365 0.033133,0.0552 0.010031,0.0174 0.019647,0.0349 0.028839,0.0528 0.014093,0.0271 0.027189,0.0548 0.039268,0.0828 l 6.283e-4,6.1e-4 c 0.3131332,-0.23701 0.4974535,-0.60679 0.4982163,-0.9995 0,-0.69399 -0.5625924,-1.25659 -1.2565853,-1.25659 z"
             id="path3894"
             inkscape:connector-curvature="0"
             sodipodi:nodetypes="cccccccccccccccccccccccccc" />
        <path
             style="opacity:1;fill:#2d2dff;fill-opacity:1;fill-rule:nonzero;stroke:none;stroke-width:0.52916664;stroke-linecap:round;stroke-linejoin:round;stroke-miterlimit:4;stroke-dasharray:none;stroke-dashoffset:16;stroke-opacity:1;paint-order:stroke fill markers"
             d="m 3.5764489,295.14646 c -0.2183131,0.16579 -0.4848528,0.25564 -0.7589825,0.25586 -0.1670186,-7.2e-4 -0.3322196,-0.0347 -0.4859451,-0.10002 -0.1010707,0.13456 -0.2281379,0.24743 -0.3736623,0.33194 -0.2370536,0.13644 -0.5121491,0.1918 -0.7835252,0.15769 0.048989,0.38967 0.2773492,0.73403 0.6172485,0.93078 0.6011285,0.34712 1.3698379,0.14107 1.7167606,-0.46017 0.1960911,-0.34088 0.2212945,-0.75389 0.068106,-1.11608 z"
             id="circle11586"
             inkscape:connector-curvature="0"
             sodipodi:nodetypes="cccccccc" />
        <path
             style="opacity:1;fill:#ff1919;fill-opacity:0.91842101;fill-rule:nonzero;stroke:none;stroke-width:0.52916664;stroke-linecap:round;stroke-linejoin:round;stroke-miterlimit:4;stroke-dasharray:none;stroke-dashoffset:16;stroke-opacity:1;paint-order:stroke fill markers"
             d="m 1.3001151,293.2898 c -0.2105482,0.005 -0.41647018,0.0628 -0.59884146,0.16812 -0.60101734,0.34713 -0.80678074,1.11579 -0.45956171,1.71676 0.19713317,0.34038 0.54227537,0.56881 0.93262187,0.61725 -0.034658,-0.27218 0.020723,-0.54823 0.1576868,-0.78598 0.083449,-0.14446 0.19483,-0.27086 0.3276448,-0.37182 -0.0652,-0.15457 -0.098788,-0.32064 -0.098784,-0.4884 5.727e-4,-0.27322 0.090179,-0.53881 0.2552439,-0.75653 -0.1630757,-0.0691 -0.3389236,-0.103 -0.5160102,-0.0994 z"
             id="circle11628"
             inkscape:connector-curvature="0"
             sodipodi:nodetypes="ccccccccc" />
        <path
             style="opacity:1;fill:#ffff00;fill-opacity:1;stroke:none;stroke-width:0.52916664;stroke-linecap:round;stroke-linejoin:round;stroke-miterlimit:4;stroke-dasharray:none;stroke-dashoffset:16;stroke-opacity:1;paint-order:stroke fill markers"
             d="m 1.816125,293.38859 c -0.1651912,0.21789 -0.2548046,0.48371 -0.2552439,0.75714 -4.43e-5,0.5058 0.3031746,0.96232 0.7694131,1.15841 l 0.00123,-0.002 c -0.3021011,-0.12678 -0.5427402,-0.36654 -0.67063,-0.66817 0.1682155,-0.12783 0.3659477,-0.21119 0.5749123,-0.24236 0.041492,-0.006 0.083267,-0.0103 0.1251677,-0.0123 0.030048,-10e-4 0.060132,-10e-4 0.090194,-6.1e-4 0.041245,0.001 0.082404,0.005 0.1233269,0.01 -0.020373,-0.1657 -0.073561,-0.32569 -0.1564595,-0.4706 -0.1374429,-0.23749 -0.348842,-0.42346 -0.6019093,-0.52951 z"
             id="circle11768"
             inkscape:connector-curvature="0"
             sodipodi:nodetypes="ccccccccccc" />
        <path
             style="opacity:1;fill:#00ffff;fill-opacity:1;stroke:none;stroke-width:0.52916664;stroke-linecap:round;stroke-linejoin:round;stroke-miterlimit:4;stroke-dasharray:none;stroke-dashoffset:16;stroke-opacity:1;paint-order:stroke fill markers"
             d="m 2.4493262,294.37827 c -0.1387219,-0.0142 0.081218,0.007 0.1251676,0.0104 0.041017,0.32456 -0.046149,0.65231 -0.2429725,0.9136 0.1537255,0.0653 0.3189265,0.0993 0.4859451,0.10002 0.2741297,-2.2e-4 0.5406694,-0.0901 0.7589825,-0.25586 -0.1060709,-0.2522 -0.2915564,-0.46289 -0.5282813,-0.60007 -0.1823714,-0.10534 -0.3882933,-0.16315 -0.5988414,-0.16812 z"
             id="circle11773"
             inkscape:connector-curvature="0"
             sodipodi:nodetypes="ccccccc" />
        <path
             style="opacity:1;fill:#ff00ff;fill-opacity:1;stroke:none;stroke-width:0.52916664;stroke-linecap:round;stroke-linejoin:round;stroke-miterlimit:4;stroke-dasharray:none;stroke-dashoffset:16;stroke-opacity:1;paint-order:stroke fill markers"
             d="m 2.5744938,294.3887 c 0.041018,0.32455 -0.046148,0.65231 -0.2429725,0.9136 -0.3021007,-0.12678 -0.5427393,-0.36654 -0.6706288,-0.66817 -0.1332573,0.10084 -0.2450625,0.22725 -0.3288719,0.37182 -0.1369634,0.23775 -0.1923449,0.5138 -0.1576868,0.78598 0.2713761,0.0341 0.5464716,-0.0212 0.7835252,-0.15769 0.4380438,-0.25287 0.6817787,-0.74372 0.6184755,-1.24554 z m -0.9136013,0.24543 c -1.36620928,1.8407 -0.68310465,0.92035 0,0 z"
             id="circle11778"
             inkscape:connector-curvature="0"
             sodipodi:nodetypes="cccccccccc" />
        <path
             style="opacity:1;fill:#ffffff;fill-opacity:1;stroke:none;stroke-width:0.52916664;stroke-linecap:round;stroke-linejoin:round;stroke-miterlimit:4;stroke-dasharray:none;stroke-dashoffset:16;stroke-opacity:1;paint-order:stroke fill markers"
             d="m 2.4511669,294.37889 a 1.2565853,1.2565853 0 0 0 -0.090194,6.1e-4 1.2565853,1.2565853 0 0 0 -0.1251677,0.0123 1.2565853,1.2565853 0 0 0 -0.5749123,0.24236 1.2565853,1.2565853 0 0 0 0.6706288,0.66817 1.2565853,1.2565853 0 0 0 0.2429725,-0.9136 1.2565853,1.2565853 0 0 0 -0.1233269,-0.01 z"
             id="path11827"
             inkscape:connector-curvature="0" />
    </g>
</svg>
